<svg xmlns="http://www.w3.org/2000/svg" viewBox="0 0 32 32" width="32" height="32">
  <defs>
    <linearGradient id="face" x1="0%" y1="0%" x2="100%" y2="100%">
      <stop offset="0%" style="stop-color:#ff9500"/>
      <stop offset="100%" style="stop-color:#d4660a"/>
    </linearGradient>
    <linearGradient id="dark" x1="0%" y1="0%" x2="100%" y2="100%">
      <stop offset="0%" style="stop-color:#8b4513"/>
      <stop offset="100%" style="stop-color:#5a2d0a"/>
    </linearGradient>
    <linearGradient id="ear" x1="0%" y1="0%" x2="100%" y2="100%">
      <stop offset="0%" style="stop-color:#ff8c00"/>
      <stop offset="100%" style="stop-color:#cc6600"/>
    </linearGradient>
  </defs>
  
  <!-- Head outline -->
  <path d="M16 3 L22 6 L26 12 L26 20 L22 26 L16 29 L10 26 L6 20 L6 12 L10 6 Z" fill="url(#face)" stroke="#5a2d0a" stroke-width="0.5"/>
  
  <!-- Left ear -->
  <path d="M8 8 L4 6 L2 10 L6 14 Z" fill="url(#ear)" stroke="#5a2d0a" stroke-width="0.3"/>
  
  <!-- Right ear -->
  <path d="M24 8 L28 6 L30 10 L26 14 Z" fill="url(#ear)" stroke="#5a2d0a" stroke-width="0.3"/>
  
  <!-- Forehead -->
  <path d="M10 8 L16 6 L22 8 L20 12 L16 10 L12 12 Z" fill="url(#dark)"/>
  
  <!-- Left eye area -->
  <path d="M10 12 L14 14 L12 18 L8 16 Z" fill="url(#dark)"/>
  <ellipse cx="11" cy="15" rx="1.5" ry="2" fill="#2a1a0a"/>
  
  <!-- Right eye area -->
  <path d="M22 12 L18 14 L20 18 L24 16 Z" fill="url(#dark)"/>
  <ellipse cx="21" cy="15" rx="1.5" ry="2" fill="#2a1a0a"/>
  
  <!-- Nose bridge -->
  <path d="M14 16 L16 14 L18 16 L16 18 Z" fill="url(#dark)"/>
  
  <!-- Nostrils -->
  <ellipse cx="14.5" cy="18" rx="0.8" ry="1" fill="#2a1a0a"/>
  <ellipse cx="17.5" cy="18" rx="0.8" ry="1" fill="#2a1a0a"/>
  
  <!-- Mouth area -->
  <path d="M12 20 L16 22 L20 20 L18 24 L16 25 L14 24 Z" fill="url(#face)"/>
  
  <!-- Mouth line -->
  <path d="M14 23 Q16 24 18 23" stroke="#5a2d0a" stroke-width="1" fill="none"/>
  
  <!-- Chin -->
  <path d="M12 24 L16 28 L20 24 L16 26 Z" fill="url(#dark)"/>
</svg>