<svg xmlns="http://www.w3.org/2000/svg" viewBox="0 0 32 32" width="32" height="32">
  <defs>
    <linearGradient id="orange1" x1="0%" y1="0%" x2="100%" y2="100%">
      <stop offset="0%" style="stop-color:#ff9500"/>
      <stop offset="100%" style="stop-color:#ff7700"/>
    </linearGradient>
    <linearGradient id="orange2" x1="0%" y1="0%" x2="100%" y2="100%">
      <stop offset="0%" style="stop-color:#ff7700"/>
      <stop offset="100%" style="stop-color:#e65c00"/>
    </linearGradient>
    <linearGradient id="brown1" x1="0%" y1="0%" x2="100%" y2="100%">
      <stop offset="0%" style="stop-color:#8b4513"/>
      <stop offset="100%" style="stop-color:#654321"/>
    </linearGradient>
    <linearGradient id="brown2" x1="0%" y1="0%" x2="100%" y2="100%">
      <stop offset="0%" style="stop-color:#654321"/>
      <stop offset="100%" style="stop-color:#4a2c17"/>
    </linearGradient>
  </defs>
  
  <!-- Main head polygon -->
  <path d="M16 2 L24 5 L28 10 L28 18 L25 24 L16 28 L7 24 L4 18 L4 10 L8 5 Z" fill="url(#orange1)"/>
  
  <!-- Left ear -->
  <path d="M6 7 L2 5 L1 9 L3 12 L7 11 Z" fill="url(#orange2)"/>
  <path d="M5 8 L3 7 L2 9 L4 11 Z" fill="url(#brown1)"/>
  
  <!-- Right ear -->
  <path d="M26 7 L30 5 L31 9 L29 12 L25 11 Z" fill="url(#orange2)"/>
  <path d="M27 8 L29 7 L30 9 L28 11 Z" fill="url(#brown1)"/>
  
  <!-- Top forehead -->
  <path d="M10 6 L16 3 L22 6 L20 9 L16 7 L12 9 Z" fill="url(#brown1)"/>
  
  <!-- Upper face geometry -->
  <path d="M8 9 L16 7 L24 9 L22 13 L16 11 L10 13 Z" fill="url(#orange2)"/>
  
  <!-- Left eye socket -->
  <path d="M8 11 L12 13 L10 17 L6 15 Z" fill="url(#brown1)"/>
  <path d="M9 13 L11 14 L10 16 L8 15 Z" fill="url(#brown2)"/>
  <ellipse cx="9.5" cy="14.5" rx="1" ry="1.2" fill="#1a0a00"/>
  
  <!-- Right eye socket -->
  <path d="M24 11 L20 13 L22 17 L26 15 Z" fill="url(#brown1)"/>
  <path d="M23 13 L21 14 L22 16 L24 15 Z" fill="url(#brown2)"/>
  <ellipse cx="22.5" cy="14.5" rx="1" ry="1.2" fill="#1a0a00"/>
  
  <!-- Nose bridge -->
  <path d="M13 15 L16 13 L19 15 L17 18 L16 19 L15 18 Z" fill="url(#brown1)"/>
  
  <!-- Nostrils -->
  <ellipse cx="14.5" cy="17.5" rx="0.7" ry="0.8" fill="#2a1500"/>
  <ellipse cx="17.5" cy="17.5" rx="0.7" ry="0.8" fill="#2a1500"/>
  
  <!-- Upper lip area -->
  <path d="M11 18 L16 16 L21 18 L19 21 L16 20 L13 21 Z" fill="url(#orange1)"/>
  
  <!-- Lower face -->
  <path d="M10 21 L16 20 L22 21 L20 25 L16 24 L12 25 Z" fill="url(#orange2)"/>
  
  <!-- Mouth -->
  <path d="M13.5 22 Q16 23.5 18.5 22" stroke="#4a2c17" stroke-width="0.8" fill="none"/>
  
  <!-- Chin point -->
  <path d="M13 25 L16 27 L19 25 L16 26 Z" fill="url(#brown1)"/>
  
  <!-- Shadow details -->
  <path d="M12 13 L16 11 L20 13 L18 15 L16 14 L14 15 Z" fill="url(#brown2)" opacity="0.6"/>
  <path d="M12 19 L16 18 L20 19 L18 22 L16 21 L14 22 Z" fill="url(#brown2)" opacity="0.4"/>
</svg>