<svg xmlns="http://www.w3.org/2000/svg" viewBox="0 0 32 32" width="32" height="32">
  <!-- Color: #e07000 (36 pixels) -->
  <rect x="28" y="6" width="1" height="1" fill="#e07000"/>
  <rect x="30" y="7" width="1" height="1" fill="#e07000"/>
  <rect x="1" y="8" width="1" height="1" fill="#e07000"/>
  <rect x="1" y="9" width="1" height="1" fill="#e07000"/>
  <rect x="0" y="10" width="1" height="1" fill="#e07000"/>
  <rect x="15" y="10" width="1" height="1" fill="#e07000"/>
  <rect x="16" y="10" width="1" height="1" fill="#e07000"/>
  <rect x="23" y="10" width="1" height="1" fill="#e07000"/>
  <rect x="0" y="11" width="1" height="1" fill="#e07000"/>
  <rect x="1" y="11" width="1" height="1" fill="#e07000"/>
  <rect x="1" y="12" width="1" height="1" fill="#e07000"/>
  <rect x="2" y="12" width="1" height="1" fill="#e07000"/>
  <rect x="2" y="13" width="1" height="1" fill="#e07000"/>
  <rect x="8" y="13" width="1" height="1" fill="#e07000"/>
  <rect x="14" y="13" width="1" height="1" fill="#e07000"/>
  <rect x="4" y="14" width="1" height="1" fill="#e07000"/>
  <rect x="8" y="14" width="1" height="1" fill="#e07000"/>
  <rect x="9" y="14" width="1" height="1" fill="#e07000"/>
  <rect x="4" y="15" width="1" height="1" fill="#e07000"/>
  <rect x="15" y="15" width="1" height="1" fill="#e07000"/>
  <rect x="21" y="15" width="1" height="1" fill="#e07000"/>
  <rect x="19" y="19" width="1" height="1" fill="#e07000"/>
  <rect x="20" y="19" width="1" height="1" fill="#e07000"/>
  <rect x="19" y="20" width="1" height="1" fill="#e07000"/>
  <rect x="20" y="20" width="1" height="1" fill="#e07000"/>
  <rect x="19" y="22" width="1" height="1" fill="#e07000"/>
  <rect x="20" y="22" width="1" height="1" fill="#e07000"/>
  <rect x="11" y="25" width="1" height="1" fill="#e07000"/>
  <rect x="12" y="25" width="1" height="1" fill="#e07000"/>
  <rect x="13" y="25" width="1" height="1" fill="#e07000"/>
  <rect x="14" y="25" width="1" height="1" fill="#e07000"/>
  <rect x="15" y="25" width="1" height="1" fill="#e07000"/>
  <rect x="14" y="26" width="1" height="1" fill="#e07000"/>
  <rect x="15" y="26" width="1" height="1" fill="#e07000"/>
  <rect x="14" y="27" width="1" height="1" fill="#e07000"/>
  <rect x="15" y="27" width="1" height="1" fill="#e07000"/>
  <!-- Color: #a04000 (34 pixels) -->
  <rect x="15" y="1" width="1" height="1" fill="#a04000"/>
  <rect x="13" y="2" width="1" height="1" fill="#a04000"/>
  <rect x="14" y="2" width="1" height="1" fill="#a04000"/>
  <rect x="15" y="2" width="1" height="1" fill="#a04000"/>
  <rect x="13" y="3" width="1" height="1" fill="#a04000"/>
  <rect x="14" y="3" width="1" height="1" fill="#a04000"/>
  <rect x="15" y="3" width="1" height="1" fill="#a04000"/>
  <rect x="13" y="4" width="1" height="1" fill="#a04000"/>
  <rect x="14" y="4" width="1" height="1" fill="#a04000"/>
  <rect x="15" y="4" width="1" height="1" fill="#a04000"/>
  <rect x="14" y="5" width="1" height="1" fill="#a04000"/>
  <rect x="15" y="5" width="1" height="1" fill="#a04000"/>
  <rect x="15" y="6" width="1" height="1" fill="#a04000"/>
  <rect x="28" y="8" width="1" height="1" fill="#a04000"/>
  <rect x="29" y="8" width="1" height="1" fill="#a04000"/>
  <rect x="20" y="10" width="1" height="1" fill="#a04000"/>
  <rect x="21" y="10" width="1" height="1" fill="#a04000"/>
  <rect x="29" y="10" width="1" height="1" fill="#a04000"/>
  <rect x="16" y="11" width="1" height="1" fill="#a04000"/>
  <rect x="16" y="12" width="1" height="1" fill="#a04000"/>
  <rect x="10" y="13" width="1" height="1" fill="#a04000"/>
  <rect x="13" y="13" width="1" height="1" fill="#a04000"/>
  <rect x="16" y="13" width="1" height="1" fill="#a04000"/>
  <rect x="27" y="13" width="1" height="1" fill="#a04000"/>
  <rect x="16" y="14" width="1" height="1" fill="#a04000"/>
  <rect x="19" y="14" width="1" height="1" fill="#a04000"/>
  <rect x="26" y="14" width="1" height="1" fill="#a04000"/>
  <rect x="20" y="17" width="1" height="1" fill="#a04000"/>
  <rect x="21" y="19" width="1" height="1" fill="#a04000"/>
  <rect x="21" y="23" width="1" height="1" fill="#a04000"/>
  <rect x="19" y="26" width="1" height="1" fill="#a04000"/>
  <rect x="20" y="26" width="1" height="1" fill="#a04000"/>
  <rect x="13" y="28" width="1" height="1" fill="#a04000"/>
  <rect x="15" y="28" width="1" height="1" fill="#a04000"/>
  <!-- Color: #1009000 (34 pixels) -->
  <rect x="3" y="5" width="1" height="1" fill="#1009000"/>
  <rect x="2" y="6" width="1" height="1" fill="#1009000"/>
  <rect x="4" y="6" width="1" height="1" fill="#1009000"/>
  <rect x="5" y="6" width="1" height="1" fill="#1009000"/>
  <rect x="26" y="6" width="1" height="1" fill="#1009000"/>
  <rect x="27" y="6" width="1" height="1" fill="#1009000"/>
  <rect x="1" y="7" width="1" height="1" fill="#1009000"/>
  <rect x="13" y="8" width="1" height="1" fill="#1009000"/>
  <rect x="18" y="8" width="1" height="1" fill="#1009000"/>
  <rect x="19" y="8" width="1" height="1" fill="#1009000"/>
  <rect x="20" y="8" width="1" height="1" fill="#1009000"/>
  <rect x="14" y="9" width="1" height="1" fill="#1009000"/>
  <rect x="15" y="9" width="1" height="1" fill="#1009000"/>
  <rect x="17" y="9" width="1" height="1" fill="#1009000"/>
  <rect x="18" y="9" width="1" height="1" fill="#1009000"/>
  <rect x="19" y="9" width="1" height="1" fill="#1009000"/>
  <rect x="20" y="9" width="1" height="1" fill="#1009000"/>
  <rect x="8" y="10" width="1" height="1" fill="#1009000"/>
  <rect x="14" y="15" width="1" height="1" fill="#1009000"/>
  <rect x="16" y="16" width="1" height="1" fill="#1009000"/>
  <rect x="19" y="17" width="1" height="1" fill="#1009000"/>
  <rect x="18" y="18" width="1" height="1" fill="#1009000"/>
  <rect x="11" y="19" width="1" height="1" fill="#1009000"/>
  <rect x="17" y="19" width="1" height="1" fill="#1009000"/>
  <rect x="18" y="19" width="1" height="1" fill="#1009000"/>
  <rect x="11" y="20" width="1" height="1" fill="#1009000"/>
  <rect x="12" y="20" width="1" height="1" fill="#1009000"/>
  <rect x="16" y="20" width="1" height="1" fill="#1009000"/>
  <rect x="11" y="21" width="1" height="1" fill="#1009000"/>
  <rect x="16" y="21" width="1" height="1" fill="#1009000"/>
  <rect x="17" y="21" width="1" height="1" fill="#1009000"/>
  <rect x="11" y="22" width="1" height="1" fill="#1009000"/>
  <rect x="12" y="22" width="1" height="1" fill="#1009000"/>
  <rect x="17" y="22" width="1" height="1" fill="#1009000"/>
  <!-- Color: #b05000 (28 pixels) -->
  <rect x="27" y="7" width="1" height="1" fill="#b05000"/>
  <rect x="29" y="7" width="1" height="1" fill="#b05000"/>
  <rect x="3" y="8" width="1" height="1" fill="#b05000"/>
  <rect x="5" y="8" width="1" height="1" fill="#b05000"/>
  <rect x="26" y="8" width="1" height="1" fill="#b05000"/>
  <rect x="29" y="9" width="1" height="1" fill="#b05000"/>
  <rect x="9" y="10" width="1" height="1" fill="#b05000"/>
  <rect x="30" y="10" width="1" height="1" fill="#b05000"/>
  <rect x="15" y="11" width="1" height="1" fill="#b05000"/>
  <rect x="23" y="11" width="1" height="1" fill="#b05000"/>
  <rect x="29" y="11" width="1" height="1" fill="#b05000"/>
  <rect x="14" y="12" width="1" height="1" fill="#b05000"/>
  <rect x="24" y="12" width="1" height="1" fill="#b05000"/>
  <rect x="4" y="13" width="1" height="1" fill="#b05000"/>
  <rect x="17" y="13" width="1" height="1" fill="#b05000"/>
  <rect x="22" y="13" width="1" height="1" fill="#b05000"/>
  <rect x="5" y="14" width="1" height="1" fill="#b05000"/>
  <rect x="18" y="14" width="1" height="1" fill="#b05000"/>
  <rect x="21" y="14" width="1" height="1" fill="#b05000"/>
  <rect x="20" y="15" width="1" height="1" fill="#b05000"/>
  <rect x="26" y="15" width="1" height="1" fill="#b05000"/>
  <rect x="21" y="22" width="1" height="1" fill="#b05000"/>
  <rect x="10" y="24" width="1" height="1" fill="#b05000"/>
  <rect x="18" y="24" width="1" height="1" fill="#b05000"/>
  <rect x="20" y="24" width="1" height="1" fill="#b05000"/>
  <rect x="20" y="25" width="1" height="1" fill="#b05000"/>
  <rect x="18" y="26" width="1" height="1" fill="#b05000"/>
  <rect x="17" y="27" width="1" height="1" fill="#b05000"/>
  <!-- Color: #502010 (26 pixels) -->
  <rect x="22" y="3" width="1" height="1" fill="#502010"/>
  <rect x="10" y="4" width="1" height="1" fill="#502010"/>
  <rect x="21" y="4" width="1" height="1" fill="#502010"/>
  <rect x="22" y="4" width="1" height="1" fill="#502010"/>
  <rect x="11" y="5" width="1" height="1" fill="#502010"/>
  <rect x="12" y="5" width="1" height="1" fill="#502010"/>
  <rect x="19" y="5" width="1" height="1" fill="#502010"/>
  <rect x="20" y="5" width="1" height="1" fill="#502010"/>
  <rect x="21" y="5" width="1" height="1" fill="#502010"/>
  <rect x="22" y="5" width="1" height="1" fill="#502010"/>
  <rect x="9" y="6" width="1" height="1" fill="#502010"/>
  <rect x="10" y="6" width="1" height="1" fill="#502010"/>
  <rect x="12" y="6" width="1" height="1" fill="#502010"/>
  <rect x="19" y="6" width="1" height="1" fill="#502010"/>
  <rect x="21" y="6" width="1" height="1" fill="#502010"/>
  <rect x="22" y="6" width="1" height="1" fill="#502010"/>
  <rect x="23" y="6" width="1" height="1" fill="#502010"/>
  <rect x="23" y="7" width="1" height="1" fill="#502010"/>
  <rect x="24" y="14" width="1" height="1" fill="#502010"/>
  <rect x="25" y="15" width="1" height="1" fill="#502010"/>
  <rect x="8" y="16" width="1" height="1" fill="#502010"/>
  <rect x="9" y="20" width="1" height="1" fill="#502010"/>
  <rect x="7" y="21" width="1" height="1" fill="#502010"/>
  <rect x="9" y="21" width="1" height="1" fill="#502010"/>
  <rect x="9" y="22" width="1" height="1" fill="#502010"/>
  <rect x="15" y="30" width="1" height="1" fill="#502010"/>
  <!-- Color: #c05000 (26 pixels) -->
  <rect x="4" y="7" width="1" height="1" fill="#c05000"/>
  <rect x="2" y="8" width="1" height="1" fill="#c05000"/>
  <rect x="30" y="8" width="1" height="1" fill="#c05000"/>
  <rect x="30" y="9" width="1" height="1" fill="#c05000"/>
  <rect x="2" y="10" width="1" height="1" fill="#c05000"/>
  <rect x="31" y="10" width="1" height="1" fill="#c05000"/>
  <rect x="30" y="11" width="1" height="1" fill="#c05000"/>
  <rect x="31" y="11" width="1" height="1" fill="#c05000"/>
  <rect x="8" y="12" width="1" height="1" fill="#c05000"/>
  <rect x="29" y="12" width="1" height="1" fill="#c05000"/>
  <rect x="30" y="12" width="1" height="1" fill="#c05000"/>
  <rect x="28" y="13" width="1" height="1" fill="#c05000"/>
  <rect x="29" y="13" width="1" height="1" fill="#c05000"/>
  <rect x="11" y="14" width="1" height="1" fill="#c05000"/>
  <rect x="27" y="14" width="1" height="1" fill="#c05000"/>
  <rect x="28" y="14" width="1" height="1" fill="#c05000"/>
  <rect x="11" y="15" width="1" height="1" fill="#c05000"/>
  <rect x="27" y="15" width="1" height="1" fill="#c05000"/>
  <rect x="28" y="15" width="1" height="1" fill="#c05000"/>
  <rect x="21" y="21" width="1" height="1" fill="#c05000"/>
  <rect x="17" y="25" width="1" height="1" fill="#c05000"/>
  <rect x="18" y="25" width="1" height="1" fill="#c05000"/>
  <rect x="19" y="25" width="1" height="1" fill="#c05000"/>
  <rect x="11" y="26" width="1" height="1" fill="#c05000"/>
  <rect x="16" y="26" width="1" height="1" fill="#c05000"/>
  <rect x="17" y="26" width="1" height="1" fill="#c05000"/>
  <!-- Color: #803000 (25 pixels) -->
  <rect x="19" y="2" width="1" height="1" fill="#803000"/>
  <rect x="20" y="3" width="1" height="1" fill="#803000"/>
  <rect x="19" y="4" width="1" height="1" fill="#803000"/>
  <rect x="13" y="5" width="1" height="1" fill="#803000"/>
  <rect x="18" y="5" width="1" height="1" fill="#803000"/>
  <rect x="28" y="7" width="1" height="1" fill="#803000"/>
  <rect x="27" y="8" width="1" height="1" fill="#803000"/>
  <rect x="5" y="9" width="1" height="1" fill="#803000"/>
  <rect x="3" y="10" width="1" height="1" fill="#803000"/>
  <rect x="4" y="10" width="1" height="1" fill="#803000"/>
  <rect x="13" y="11" width="1" height="1" fill="#803000"/>
  <rect x="14" y="11" width="1" height="1" fill="#803000"/>
  <rect x="17" y="11" width="1" height="1" fill="#803000"/>
  <rect x="18" y="11" width="1" height="1" fill="#803000"/>
  <rect x="22" y="11" width="1" height="1" fill="#803000"/>
  <rect x="4" y="12" width="1" height="1" fill="#803000"/>
  <rect x="22" y="12" width="1" height="1" fill="#803000"/>
  <rect x="27" y="12" width="1" height="1" fill="#803000"/>
  <rect x="5" y="13" width="1" height="1" fill="#803000"/>
  <rect x="20" y="16" width="1" height="1" fill="#803000"/>
  <rect x="21" y="18" width="1" height="1" fill="#803000"/>
  <rect x="10" y="25" width="1" height="1" fill="#803000"/>
  <rect x="16" y="28" width="1" height="1" fill="#803000"/>
  <rect x="18" y="28" width="1" height="1" fill="#803000"/>
  <rect x="19" y="28" width="1" height="1" fill="#803000"/>
  <!-- Color: #301010 (25 pixels) -->
  <rect x="24" y="6" width="1" height="1" fill="#301010"/>
  <rect x="24" y="7" width="1" height="1" fill="#301010"/>
  <rect x="24" y="8" width="1" height="1" fill="#301010"/>
  <rect x="11" y="11" width="1" height="1" fill="#301010"/>
  <rect x="20" y="11" width="1" height="1" fill="#301010"/>
  <rect x="11" y="12" width="1" height="1" fill="#301010"/>
  <rect x="12" y="12" width="1" height="1" fill="#301010"/>
  <rect x="19" y="12" width="1" height="1" fill="#301010"/>
  <rect x="20" y="12" width="1" height="1" fill="#301010"/>
  <rect x="21" y="12" width="1" height="1" fill="#301010"/>
  <rect x="24" y="15" width="1" height="1" fill="#301010"/>
  <rect x="23" y="16" width="1" height="1" fill="#301010"/>
  <rect x="22" y="18" width="1" height="1" fill="#301010"/>
  <rect x="22" y="19" width="1" height="1" fill="#301010"/>
  <rect x="23" y="19" width="1" height="1" fill="#301010"/>
  <rect x="23" y="20" width="1" height="1" fill="#301010"/>
  <rect x="24" y="20" width="1" height="1" fill="#301010"/>
  <rect x="23" y="21" width="1" height="1" fill="#301010"/>
  <rect x="25" y="21" width="1" height="1" fill="#301010"/>
  <rect x="23" y="22" width="1" height="1" fill="#301010"/>
  <rect x="24" y="22" width="1" height="1" fill="#301010"/>
  <rect x="23" y="23" width="1" height="1" fill="#301010"/>
  <rect x="16" y="29" width="1" height="1" fill="#301010"/>
  <rect x="17" y="29" width="1" height="1" fill="#301010"/>
  <rect x="18" y="29" width="1" height="1" fill="#301010"/>
  <!-- Color: #402010 (24 pixels) -->
  <rect x="23" y="5" width="1" height="1" fill="#402010"/>
  <rect x="18" y="6" width="1" height="1" fill="#402010"/>
  <rect x="25" y="13" width="1" height="1" fill="#402010"/>
  <rect x="24" y="16" width="1" height="1" fill="#402010"/>
  <rect x="25" y="16" width="1" height="1" fill="#402010"/>
  <rect x="22" y="17" width="1" height="1" fill="#402010"/>
  <rect x="23" y="17" width="1" height="1" fill="#402010"/>
  <rect x="24" y="17" width="1" height="1" fill="#402010"/>
  <rect x="25" y="17" width="1" height="1" fill="#402010"/>
  <rect x="9" y="18" width="1" height="1" fill="#402010"/>
  <rect x="23" y="18" width="1" height="1" fill="#402010"/>
  <rect x="24" y="18" width="1" height="1" fill="#402010"/>
  <rect x="25" y="18" width="1" height="1" fill="#402010"/>
  <rect x="8" y="19" width="1" height="1" fill="#402010"/>
  <rect x="24" y="19" width="1" height="1" fill="#402010"/>
  <rect x="25" y="19" width="1" height="1" fill="#402010"/>
  <rect x="7" y="20" width="1" height="1" fill="#402010"/>
  <rect x="8" y="20" width="1" height="1" fill="#402010"/>
  <rect x="6" y="21" width="1" height="1" fill="#402010"/>
  <rect x="8" y="21" width="1" height="1" fill="#402010"/>
  <rect x="7" y="22" width="1" height="1" fill="#402010"/>
  <rect x="8" y="22" width="1" height="1" fill="#402010"/>
  <rect x="22" y="23" width="1" height="1" fill="#402010"/>
  <rect x="14" y="29" width="1" height="1" fill="#402010"/>
  <!-- Color: #f08000 (23 pixels) -->
  <rect x="4" y="5" width="1" height="1" fill="#f08000"/>
  <rect x="27" y="5" width="1" height="1" fill="#f08000"/>
  <rect x="28" y="5" width="1" height="1" fill="#f08000"/>
  <rect x="29" y="6" width="1" height="1" fill="#f08000"/>
  <rect x="20" y="7" width="1" height="1" fill="#f08000"/>
  <rect x="26" y="7" width="1" height="1" fill="#f08000"/>
  <rect x="17" y="8" width="1" height="1" fill="#f08000"/>
  <rect x="0" y="9" width="1" height="1" fill="#f08000"/>
  <rect x="23" y="9" width="1" height="1" fill="#f08000"/>
  <rect x="14" y="14" width="1" height="1" fill="#f08000"/>
  <rect x="9" y="15" width="1" height="1" fill="#f08000"/>
  <rect x="10" y="15" width="1" height="1" fill="#f08000"/>
  <rect x="17" y="15" width="1" height="1" fill="#f08000"/>
  <rect x="18" y="15" width="1" height="1" fill="#f08000"/>
  <rect x="19" y="18" width="1" height="1" fill="#f08000"/>
  <rect x="16" y="19" width="1" height="1" fill="#f08000"/>
  <rect x="17" y="20" width="1" height="1" fill="#f08000"/>
  <rect x="18" y="20" width="1" height="1" fill="#f08000"/>
  <rect x="10" y="21" width="1" height="1" fill="#f08000"/>
  <rect x="18" y="21" width="1" height="1" fill="#f08000"/>
  <rect x="10" y="22" width="1" height="1" fill="#f08000"/>
  <rect x="16" y="22" width="1" height="1" fill="#f08000"/>
  <rect x="18" y="22" width="1" height="1" fill="#f08000"/>
</svg>